<?xml version="1.0" encoding="UTF-8"?>
<svg version="1.1" xmlns="http://www.w3.org/2000/svg" width="512" height="512">
<path d="M0 0 C0.79212891 0.17160645 1.58425781 0.34321289 2.40039062 0.52001953 C13.86304143 3.06702236 24.50378474 6.74145876 35 12 C35.67160156 12.33515625 36.34320313 12.6703125 37.03515625 13.015625 C61.34511497 25.37818465 78.44290427 44.50215434 87.19140625 70.546875 C90.05929251 79.86001088 92.04941066 87.79157903 87.41307068 96.79922485 C82.80276131 103.97951274 75.11569571 106.3180253 67.24609375 108.2890625 C66.22757828 108.5596347 65.20906281 108.83020691 64.15968323 109.10897827 C60.92314121 109.96466684 57.68078036 110.79526178 54.4375 111.625 C52.28797405 112.18843807 50.13888059 112.75352882 47.99023438 113.3203125 C43.85745431 114.4082019 39.72185915 115.48406353 35.58325195 116.54956055 C32.16775082 117.43099536 28.75968738 118.33174532 25.36010742 119.27270508 C24.67662735 119.46089813 23.99314728 119.64909119 23.28895569 119.84298706 C21.54562807 120.32598487 19.80420386 120.81583928 18.06298828 121.30639648 C11.74976706 122.73600445 5.69967411 122.93261469 -0.4375 120.8125 C-3.29196444 118.79348857 -5.63661687 116.57191694 -8 114 C-8.1959375 114.64066406 -8.391875 115.28132813 -8.59375 115.94140625 C-8.8928125 116.80636719 -9.191875 117.67132813 -9.5 118.5625 C-9.7784375 119.40941406 -10.056875 120.25632812 -10.34375 121.12890625 C-14.42771161 128.20841517 -20.29256498 131.63617039 -28.02148438 133.74804688 C-28.94251953 133.97556641 -29.86355469 134.20308594 -30.8125 134.4375 C-31.75287109 134.69208984 -32.69324219 134.94667969 -33.66210938 135.20898438 C-40.41583137 137 -40.41583137 137 -44 137 C-41.92426145 144.93353652 -39.84465114 152.86605379 -37.76240921 160.79788589 C-37.42194093 162.09496041 -37.08155494 163.39205652 -36.7412529 164.68917465 C-32.99816104 178.95636094 -29.24007291 193.21828921 -25.33203125 207.44140625 C-25.05114655 208.46424713 -24.77026184 209.48708801 -24.48086548 210.54092407 C-23.16457155 215.32685173 -21.84043863 220.1104692 -20.50683594 224.89160156 C-20.0370375 226.59047492 -19.56730674 228.28936699 -19.09765625 229.98828125 C-18.88277054 230.74919571 -18.66788483 231.51011017 -18.44648743 232.29408264 C-17.50960691 235.69679441 -17 238.43802393 -17 242 C-16.15179688 241.86722656 -15.30359375 241.73445312 -14.4296875 241.59765625 C-13.25664062 241.42105469 -12.08359375 241.24445313 -10.875 241.0625 C-9.73804688 240.88847656 -8.60109375 240.71445312 -7.4296875 240.53515625 C67.57190519 230.65988648 157.97899365 239.36675874 226 274 C226.7626416 274.38478516 227.5252832 274.76957031 228.31103516 275.16601562 C252.17850829 287.37193827 275.36581974 304.25550561 284.30859375 330.5625 C288.36804415 344.87378278 285.96099966 359.1585391 278.9375 372.125 C269.38291532 387.46962208 255.13234766 398.56001301 240 408 C239.38801758 408.3830127 238.77603516 408.76602539 238.14550781 409.16064453 C194.37740237 436.1263874 139.43494094 445.66972729 89 450 C87.95134766 450.09571289 86.90269531 450.19142578 85.82226562 450.29003906 C72.65707304 451.34250002 59.44882449 451.24379631 46.25 451.25 C44.95965851 451.25067474 43.66931702 451.25134949 42.33987427 451.25204468 C21.72648628 451.23495748 1.45157041 450.59216511 -19 448 C-19.67047363 447.9175 -20.34094727 447.835 -21.03173828 447.75 C-77.61340634 440.78280431 -144.05247279 425.80762357 -183 381 C-193.56722961 367.27388324 -197.25117012 353.0048739 -196 336 C-192.69388025 315.51546071 -176.43441414 299.76552479 -160.4140625 288.06640625 C-153.90346071 283.46075832 -147.10319531 279.60782139 -140 276 C-139.2167334 275.5968457 -138.4334668 275.19369141 -137.62646484 274.77832031 C-109.38433735 260.36647177 -69.26900482 243.98927968 -37 245 C-37.15739151 244.47622269 -37.31478302 243.95244537 -37.47694397 243.41279602 C-43.04077018 224.80935809 -48.08028093 206.07359061 -53.07299805 187.31079102 C-54.22401031 182.98572508 -55.38108213 178.66230461 -56.53965664 174.33925915 C-57.43872511 170.98146181 -58.33434326 167.62275168 -59.22892952 164.26375771 C-59.65479886 162.66663288 -60.08182304 161.06981552 -60.51003838 159.4733181 C-61.10198195 157.26463953 -61.6891851 155.05475439 -62.27514648 152.84448242 C-62.6093309 151.59116623 -62.94351532 150.33785004 -63.28782654 149.04655457 C-64 146 -64 146 -64 143 C-64.62455078 143.18175781 -65.24910156 143.36351562 -65.89257812 143.55078125 C-68.75868172 144.37815387 -71.62917824 145.18915721 -74.5 146 C-75.48226562 146.28617188 -76.46453125 146.57234375 -77.4765625 146.8671875 C-86.09692411 149.28088875 -92.76423005 150.42291349 -101 146 C-103.11989941 144.42762428 -105.03605993 142.77233616 -107 141 C-107.36351563 141.88751953 -107.36351563 141.88751953 -107.734375 142.79296875 C-111.24601071 151.07232525 -114.51891935 155.44695515 -123 159 C-127.36724147 160.45722939 -131.78926014 161.68030651 -136.23046875 162.890625 C-137.49788406 163.24010193 -138.76529938 163.58957886 -140.07112122 163.949646 C-142.74478803 164.68500166 -145.42022525 165.41345759 -148.09692383 166.13769531 C-151.49247411 167.05758112 -154.88125818 168.00013224 -158.26885509 168.94882584 C-161.54365707 169.86112996 -164.82489297 170.74930914 -168.10546875 171.640625 C-169.30382858 171.97805725 -170.50218842 172.3154895 -171.73686218 172.66314697 C-180.47391877 174.98981736 -189.72628988 176.7892945 -198.5 173.8125 C-208.98658588 166.20972524 -211.48410062 154.93857912 -213.56640625 142.66015625 C-216.83171405 115.09625166 -208.36750008 88.61509459 -191.39086914 66.84619141 C-162.67973342 31.2616414 -121.66460181 8.89907005 -77 0 C-76.19723633 -0.16226074 -75.39447266 -0.32452148 -74.56738281 -0.49169922 C-50.78735013 -5.05464014 -23.64329863 -5.30989945 0 0 Z " fill="#FEC747" transform="translate(220,31)"/>
<path d="M0 0 C0.79212891 0.17160645 1.58425781 0.34321289 2.40039062 0.52001953 C13.86304143 3.06702236 24.50378474 6.74145876 35 12 C35.67160156 12.33515625 36.34320313 12.6703125 37.03515625 13.015625 C61.34511497 25.37818465 78.44290427 44.50215434 87.19140625 70.546875 C90.05929251 79.86001088 92.04941066 87.79157903 87.41307068 96.79922485 C82.80276131 103.97951274 75.11569571 106.3180253 67.24609375 108.2890625 C66.22757828 108.5596347 65.20906281 108.83020691 64.15968323 109.10897827 C60.92314121 109.96466684 57.68078036 110.79526178 54.4375 111.625 C52.28797405 112.18843807 50.13888059 112.75352882 47.99023438 113.3203125 C43.85745431 114.4082019 39.72185915 115.48406353 35.58325195 116.54956055 C32.16775082 117.43099536 28.75968738 118.33174532 25.36010742 119.27270508 C24.67662735 119.46089813 23.99314728 119.64909119 23.28895569 119.84298706 C21.54562807 120.32598487 19.80420386 120.81583928 18.06298828 121.30639648 C11.74976706 122.73600445 5.69967411 122.93261469 -0.4375 120.8125 C-3.29196444 118.79348857 -5.63661687 116.57191694 -8 114 C-8.1959375 114.64066406 -8.391875 115.28132813 -8.59375 115.94140625 C-8.8928125 116.80636719 -9.191875 117.67132813 -9.5 118.5625 C-9.7784375 119.40941406 -10.056875 120.25632812 -10.34375 121.12890625 C-14.59470602 128.49789841 -20.70118118 131.74976645 -28.69726562 134.00585938 C-29.72529297 134.27205078 -30.75332031 134.53824219 -31.8125 134.8125 C-32.82892578 135.09802734 -33.84535156 135.38355469 -34.89257812 135.67773438 C-39.74553228 137.01082758 -44.56879788 138.14163193 -49.53125 138.98046875 C-55.41589117 139.99342047 -61.00416231 141.69252467 -66.6875 143.5 C-89.19607315 150.57370017 -89.19607315 150.57370017 -97.625 147.8125 C-101.2654972 145.85741817 -103.94324541 143.75853463 -107 141 C-107.36351563 141.88751953 -107.36351563 141.88751953 -107.734375 142.79296875 C-111.24601071 151.07232525 -114.51891935 155.44695515 -123 159 C-127.36724147 160.45722939 -131.78926014 161.68030651 -136.23046875 162.890625 C-137.49788406 163.24010193 -138.76529938 163.58957886 -140.07112122 163.949646 C-142.74478803 164.68500166 -145.42022525 165.41345759 -148.09692383 166.13769531 C-151.49247411 167.05758112 -154.88125818 168.00013224 -158.26885509 168.94882584 C-161.54365707 169.86112996 -164.82489297 170.74930914 -168.10546875 171.640625 C-169.30382858 171.97805725 -170.50218842 172.3154895 -171.73686218 172.66314697 C-180.47391877 174.98981736 -189.72628988 176.7892945 -198.5 173.8125 C-208.98658588 166.20972524 -211.48410062 154.93857912 -213.56640625 142.66015625 C-216.83171405 115.09625166 -208.36750008 88.61509459 -191.39086914 66.84619141 C-162.67973342 31.2616414 -121.66460181 8.89907005 -77 0 C-76.19723633 -0.16226074 -75.39447266 -0.32452148 -74.56738281 -0.49169922 C-50.78735013 -5.05464014 -23.64329863 -5.30989945 0 0 Z " fill="#FEA2AE" transform="translate(220,31)"/>
<path d="M0 0 C40.18360513 7.62919862 84.06656573 21.02779287 115 49 C115.49483887 49.44569336 115.98967773 49.89138672 116.49951172 50.35058594 C128.91877278 61.68466885 138.89230128 75.78150657 140.23828125 93.05859375 C140.62857665 110.82730547 134.25079905 125.01542186 122.18041992 137.77734375 C113.59611683 146.61374062 104.41592679 153.50224991 94 160 C93.08202637 160.57451904 93.08202637 160.57451904 92.14550781 161.16064453 C48.37740237 188.1263874 -6.56505906 197.66972729 -57 202 C-58.04865234 202.09571289 -59.09730469 202.19142578 -60.17773438 202.29003906 C-73.34292696 203.34250002 -86.55117551 203.24379631 -99.75 203.25 C-101.04034149 203.25067474 -102.33068298 203.25134949 -103.66012573 203.25204468 C-124.27351372 203.23495748 -144.54842959 202.59216511 -165 200 C-165.67047363 199.9175 -166.34094727 199.835 -167.03173828 199.75 C-183.87441414 197.67607354 -200.41289484 194.67657156 -216.9375 190.8125 C-218.06153732 190.55117783 -218.06153732 190.55117783 -219.20828247 190.28457642 C-221.31721657 189.78963172 -223.42276438 189.28264481 -225.52734375 188.76953125 C-226.73124756 188.47667236 -227.93515137 188.18381348 -229.17553711 187.88208008 C-232 187 -232 187 -234 185 C-233.35163177 185.02865646 -232.70326355 185.05731293 -232.0352478 185.08683777 C-212.89917354 185.91230609 -193.77724943 186.28743331 -174.625 186.3125 C-173.90499565 186.3135033 -173.1849913 186.31450661 -172.44316864 186.31554031 C-149.43011068 186.33509116 -126.74145255 185.82490225 -104 182 C-102.88830444 181.81473755 -102.88830444 181.81473755 -101.75415039 181.62573242 C-85.35919447 178.86758933 -69.11606607 175.46112959 -53 171.375 C-51.95118652 171.11033936 -50.90237305 170.84567871 -49.82177734 170.57299805 C-40.00104488 167.96364393 -30.50671128 164.8142021 -22.62109375 158.234375 C-21 157 -21 157 -18 156 C-16.8725724 154.19976141 -16.8725724 154.19976141 -16 152 C-15.64679688 151.25363281 -15.29359375 150.50726563 -14.9296875 149.73828125 C-11.49001103 141.82702538 -10.71980699 135.93841011 -13.6875 127.75 C-17.63163698 118.96717951 -24.37564483 115.58104713 -33 112 C-36.53532418 110.90860995 -40.08973789 109.9469188 -43.6640625 108.9921875 C-53.86397247 105.95849062 -61.51203432 101.02852543 -67.01953125 91.8671875 C-69.91760051 86.3481552 -69.99380757 80.26744539 -68.19921875 74.3671875 C-64.24098256 65.47135772 -57.80236915 60.95799801 -49 57.25 C-39.4957045 53.88389534 -29.61907304 52.60058285 -19.66796875 51.29296875 C0.02178651 49.06425045 0.02178651 49.06425045 16.25 38.625 C19.94639438 33.08040843 20.84182952 27.52957512 20 21 C18.08496864 13.76409037 14.07223746 9.21561809 8 5 C5.37316845 3.4900186 2.77290661 2.23790474 0 1 C0 0.67 0 0.34 0 0 Z " fill="#48BFFD" transform="translate(366,279)"/>
<path d="M0 0 C-0.268125 0.78375 -0.53625 1.5675 -0.8125 2.375 C-2.0283483 6.08653691 -3.16814545 9.8128818 -4.2734375 13.55859375 C-4.86513562 15.54682669 -5.49021149 17.52510242 -6.125 19.5 C-13.55361005 49.2144402 -7.49014129 86.52957613 2 115 C2.51167021 121.65171276 0.82306083 126.09660683 -2.6875 131.6875 C-8.90392353 137.90392353 -18.00959521 139.65027194 -26.23046875 141.890625 C-27.49788406 142.24010193 -28.76529938 142.58957886 -30.07112122 142.949646 C-32.74478803 143.68500166 -35.42022525 144.41345759 -38.09692383 145.13769531 C-41.49247411 146.05758112 -44.88125818 147.00013224 -48.26885509 147.94882584 C-51.54365707 148.86112996 -54.82489297 149.74930914 -58.10546875 150.640625 C-59.30382858 150.97805725 -60.50218842 151.3154895 -61.73686218 151.66314697 C-70.47391877 153.98981736 -79.72628988 155.7892945 -88.5 152.8125 C-95.36520374 147.83522729 -99.0275097 142.18446814 -100.58984375 133.85546875 C-102.65970681 114.39875595 -100.67747601 95.67891111 -92 78 C-91.72172363 77.42185547 -91.44344727 76.84371094 -91.15673828 76.24804688 C-81.86194795 57.12561183 -67.87932663 40.87406268 -51 28 C-50.06671875 27.26265625 -49.1334375 26.5253125 -48.171875 25.765625 C-37.09595765 17.17734684 -25.36121606 10.4968752 -12.75 4.4375 C-11.83226807 3.99543213 -10.91453613 3.55336426 -9.96899414 3.09790039 C-9.10781982 2.6930542 -8.24664551 2.28820801 -7.359375 1.87109375 C-6.20646973 1.32859985 -6.20646973 1.32859985 -5.03027344 0.77514648 C-3 0 -3 0 0 0 Z " fill="#FF5C72" transform="translate(110,52)"/>
<path d="M0 0 C1.27746094 0.19464844 2.55492187 0.38929687 3.87109375 0.58984375 C25.52929891 4.21743213 47.9917782 11.72081216 65 26 C65.84691406 26.70898438 66.69382812 27.41796875 67.56640625 28.1484375 C77.67369267 36.94409133 90.52380207 49.03699501 93 63 C93.66 63 94.32 63 95 63 C97.87801654 71.20577334 99.6491143 78.31785398 96.5 86.6875 C93.63672437 92.24655231 89.322312 95.65706107 83.53439331 97.99664307 C80.78863278 98.85313061 78.03611573 99.59026768 75.24609375 100.2890625 C74.22757828 100.5596347 73.20906281 100.83020691 72.15968323 101.10897827 C68.92314121 101.96466684 65.68078036 102.79526178 62.4375 103.625 C60.28797405 104.18843807 58.13888059 104.75352882 55.99023438 105.3203125 C51.85745431 106.4082019 47.72185915 107.48406353 43.58325195 108.54956055 C40.16775082 109.43099536 36.75968738 110.33174532 33.36010742 111.27270508 C32.33488731 111.55499466 32.33488731 111.55499466 31.28895569 111.84298706 C29.54562807 112.32598487 27.80420386 112.81583928 26.06298828 113.30639648 C19.78636397 114.7277172 13.74761426 114.91587142 7.625 112.875 C1.13473518 108.23909656 -1.74025602 104.58187332 -3.4375 96.9375 C-3.84305625 95.32826081 -4.25341696 93.72022663 -4.66796875 92.11328125 C-4.98773682 90.85765381 -4.98773682 90.85765381 -5.31396484 89.57666016 C-13.59769915 58.46401537 -28.16571974 26.49907832 -53.2734375 5.47265625 C-54.93687488 4.05384201 -56.47587289 2.56620423 -58 1 C-48.67884805 -8.32115195 -12.108397 -1.99093601 0 0 Z " fill="#FF5C72" transform="translate(212,39)"/>
<path d="M0 0 C2.67924573 1.06602793 5.0463112 2.14224992 7.5625 3.5 C8.25432373 3.8616626 8.94614746 4.2233252 9.65893555 4.59594727 C11.78162048 5.71461701 13.89109578 6.8556064 16 8 C16.63486328 8.33628418 17.26972656 8.67256836 17.92382812 9.01904297 C26.36822331 13.49869163 33.87431073 18.60425939 41 25 C42.01900391 25.91265625 42.01900391 25.91265625 43.05859375 26.84375 C49.2844186 32.73485309 54.04667389 39.2860905 54.375 48.0625 C54.23521268 57.72053314 49.23549135 64.62485333 42.7421875 71.4375 C25.01757505 88.00067061 2.61211313 97.15498116 -20 105 C-21.14339844 105.40347656 -22.28679687 105.80695313 -23.46484375 106.22265625 C-26.82865355 107.25408637 -29.50456531 107.38838163 -33 107 C-35.2109375 105.66015625 -35.2109375 105.66015625 -37 103 C-37.40576904 99.34258465 -37.17550208 95.73169068 -37 92.0625 C-36.65870302 76.85529853 -39.91470814 64.12326851 -50.3125 52.390625 C-53.20118691 49.48293357 -56.20252574 46.72106122 -59.2421875 43.97265625 C-61 42 -61 42 -61.4375 38.4375 C-60.96779952 34.7469962 -60.77800821 34.19271196 -58 32 C-56.02978516 31.21972656 -56.02978516 31.21972656 -53.7890625 30.640625 C-52.9626123 30.41592529 -52.13616211 30.19122559 -51.28466797 29.9597168 C-49.96813232 29.60840698 -49.96813232 29.60840698 -48.625 29.25 C-32.63364892 24.68574817 -18.95237477 17.47839496 -10.15625 2.75 C-7.66827161 -1.01558891 -4.14184994 -0.30275451 0 0 Z " fill="#0AA9FF" transform="translate(421,327)"/>
<path d="M0 0 C43.2306415 8.20770434 91.01009865 23.10628218 122 56 C117.87912092 56 115.61741191 53.8545282 112.375 51.5625 C87.82889881 34.84981964 58.70418757 24.20765943 30 17 C30.33 17.66 30.66 18.32 31 19 C31.86328311 29.5292235 30.90732288 38.23199942 24.375 46.75 C12.59701207 59.26411218 -4.95227475 60.83324372 -21 63 C-40.11200689 65.08479119 -40.11200689 65.08479119 -56 75 C-57.86933306 78.08846331 -58.00349989 79.80750582 -57.9375 83.4375 C-56.37456689 89.3766458 -53.19358806 92.48821343 -48.125 95.625 C-44.13658894 97.7151126 -40.17792644 98.80517587 -35.8125 99.875 C-24.00678048 102.78063376 -12.85573473 107.39692413 -6 118 C-3.38357553 123.07939296 -1.47667561 128.27989264 -1 134 C-0.90525391 135.08861328 -0.90525391 135.08861328 -0.80859375 136.19921875 C-0.32620274 146.11157605 -3.6857029 154.38615664 -10.0234375 161.9375 C-32.90846549 185.81752921 -75.43480637 188.63096448 -106.45849609 193.44677734 C-108.65829556 193.79041071 -110.85546495 194.15200042 -113.04760742 194.54150391 C-116.27465156 195.04265241 -119.45550026 195.29607766 -122.71484375 195.5 C-124.02501465 195.58241943 -125.33518555 195.66483887 -126.68505859 195.74975586 C-131.85990186 196.05809598 -137.0356953 196.34979207 -142.21228027 196.62733459 C-145.85762214 196.82286303 -149.50141189 197.02784305 -153.14404297 197.26904297 C-171.94883643 198.49037332 -188.66666397 197.31214276 -207 193 C-209.38910255 192.46516049 -211.77842827 191.93131701 -214.16796875 191.3984375 C-218.54585015 190.39891981 -222.92205015 189.3943434 -227.28515625 188.33203125 C-228.15019775 188.12296143 -229.01523926 187.9138916 -229.90649414 187.69848633 C-232 187 -232 187 -234 185 C-233.35163177 185.02865646 -232.70326355 185.05731293 -232.0352478 185.08683777 C-212.89917354 185.91230609 -193.77724943 186.28743331 -174.625 186.3125 C-173.90499565 186.3135033 -173.1849913 186.31450661 -172.44316864 186.31554031 C-149.43011068 186.33509116 -126.74145255 185.82490225 -104 182 C-102.88830444 181.81473755 -102.88830444 181.81473755 -101.75415039 181.62573242 C-85.35919447 178.86758933 -69.11606607 175.46112959 -53 171.375 C-51.95118652 171.11033936 -50.90237305 170.84567871 -49.82177734 170.57299805 C-40.00104488 167.96364393 -30.50671128 164.8142021 -22.62109375 158.234375 C-21 157 -21 157 -18 156 C-16.8725724 154.19976141 -16.8725724 154.19976141 -16 152 C-15.64679688 151.25363281 -15.29359375 150.50726563 -14.9296875 149.73828125 C-11.49001103 141.82702538 -10.71980699 135.93841011 -13.6875 127.75 C-17.63163698 118.96717951 -24.37564483 115.58104713 -33 112 C-36.53532418 110.90860995 -40.08973789 109.9469188 -43.6640625 108.9921875 C-53.86397247 105.95849062 -61.51203432 101.02852543 -67.01953125 91.8671875 C-69.91760051 86.3481552 -69.99380757 80.26744539 -68.19921875 74.3671875 C-64.24098256 65.47135772 -57.80236915 60.95799801 -49 57.25 C-39.4957045 53.88389534 -29.61907304 52.60058285 -19.66796875 51.29296875 C0.02178651 49.06425045 0.02178651 49.06425045 16.25 38.625 C19.94639438 33.08040843 20.84182952 27.52957512 20 21 C18.08496864 13.76409037 14.07223746 9.21561809 8 5 C5.37316845 3.4900186 2.77290661 2.23790474 0 1 C0 0.67 0 0.34 0 0 Z " fill="#85D3FA" transform="translate(366,279)"/>
<path d="M0 0 C0.99 4.62 1.98 9.24 3 14 C1.53691406 14.31453125 0.07382813 14.6290625 -1.43359375 14.953125 C-6.64847037 16.07663554 -11.85910925 17.21891795 -17.06933594 18.36376953 C-19.46258197 18.88332961 -21.85790453 19.38366783 -24.2578125 19.87109375 C-64.60551704 28.52886608 -113.96566032 46.90454315 -137.8359375 82.53515625 C-140.78230751 87.13266286 -143.1158872 91.87422586 -145 97 C-145.24363281 97.64839844 -145.48726562 98.29679687 -145.73828125 98.96484375 C-149.4282163 110.83790007 -146.89375985 122.94058728 -142 134 C-140.24108281 137.05630033 -138.39742459 139.95458373 -136.35546875 142.828125 C-135 145 -135 145 -135 148 C-147.22941064 136.49351019 -159.1540915 122.74254628 -160.23828125 105.12890625 C-160.7355042 85.0366793 -153.72739392 70.23842952 -139.9765625 55.78515625 C-129.38839304 45.57592406 -117.05921563 37.63297507 -104 31 C-103.2167334 30.5968457 -102.4334668 30.19369141 -101.62646484 29.77832031 C-75.67612684 16.53596309 -47.74559568 8.51675824 -19.3125 2.5625 C-18.07677246 2.3032373 -16.84104492 2.04397461 -15.56787109 1.77685547 C-10.15952908 0.68437489 -5.57202556 0 0 0 Z " fill="#FED983" transform="translate(184,276)"/>
<path d="M0 0 C2.80017673 9.21724841 4.65079634 16.03060706 0 25 C-5.39540609 33.59268377 -16.0525582 35.38946015 -25.23046875 37.890625 C-26.49788406 38.24010193 -27.76529938 38.58957886 -29.07112122 38.949646 C-31.74478803 39.68500166 -34.42022525 40.41345759 -37.09692383 41.13769531 C-40.49247411 42.05758112 -43.88125818 43.00013224 -47.26885509 43.94882584 C-50.54365707 44.86112996 -53.82489297 45.74930914 -57.10546875 46.640625 C-58.9030085 47.14677338 -58.9030085 47.14677338 -60.73686218 47.66314697 C-69.47391877 49.98981736 -78.72628988 51.7892945 -87.5 48.8125 C-93.99206557 44.10575247 -97.74311946 38.72928044 -99.46875 30.86328125 C-99.70441044 29.24966184 -99.86171377 27.62486319 -100 26 C-89.40174537 22.62717908 -78.70658875 19.68603967 -67.96875 16.796875 C-66.16084171 16.30936977 -64.35293981 15.82184085 -62.54504395 15.33428955 C-58.78375831 14.32069926 -55.02192132 13.30918385 -51.25976562 12.29882812 C-46.44205975 11.00454047 -41.62655888 9.7022362 -36.81151581 8.39808273 C-33.09118784 7.39187977 -29.36936785 6.39128755 -25.64710999 5.39225006 C-23.86996724 4.91426752 -22.0933786 4.43421978 -20.31736755 3.95204926 C-17.84268291 3.28079454 -15.36600223 2.61746759 -12.88867188 1.95605469 C-11.79613098 1.65690659 -11.79613098 1.65690659 -10.68151855 1.35171509 C-7.04054006 0.3887442 -3.77078289 -0.22969643 0 0 Z " fill="#FF334E" transform="translate(109,156)"/>
<path d="M0 0 C3.11087802 7.83274643 4.54700407 14.60278252 1.5 22.6875 C-1.36358549 28.24651085 -5.67751071 31.6569894 -11.46560669 33.99664307 C-14.21136722 34.85313061 -16.96388427 35.59026768 -19.75390625 36.2890625 C-20.77242172 36.5596347 -21.79093719 36.83020691 -22.84031677 37.10897827 C-26.07685879 37.96466684 -29.31921964 38.79526178 -32.5625 39.625 C-34.71202595 40.18843807 -36.86111941 40.75352882 -39.00976562 41.3203125 C-43.14254569 42.4082019 -47.27814085 43.48406353 -51.41674805 44.54956055 C-54.83224918 45.43099536 -58.24031262 46.33174532 -61.63989258 47.27270508 C-62.66511269 47.55499466 -62.66511269 47.55499466 -63.71104431 47.84298706 C-65.45437193 48.32598487 -67.19579614 48.81583928 -68.93701172 49.30639648 C-75.21363603 50.7277172 -81.25238574 50.91587142 -87.375 48.875 C-94.2655094 43.95320757 -97.51764363 39.53005071 -99 31 C-99.01761366 29.00007756 -99.01960016 26.99990396 -99 25 C-98.04359116 24.74579285 -97.08718231 24.49158569 -96.10179138 24.22967529 C-87.02658397 21.81753656 -77.95139375 19.40533315 -68.87621975 16.9930687 C-64.21216601 15.75332261 -59.54810652 14.5135982 -54.8840332 13.27392578 C-50.37118706 12.07444741 -45.85835691 10.8749089 -41.34553719 9.67533112 C-39.63584 9.22087779 -37.92613735 8.76644503 -36.21642876 8.31203461 C-34.58503999 7.8784375 -32.95368244 7.4447229 -31.32235813 7.01088333 C-29.76387543 6.59679696 -28.20518688 6.1834844 -26.64627743 5.77100754 C-22.98369845 4.80073161 -19.32594223 3.81708946 -15.67581177 2.80090332 C-14.99367394 2.61301365 -14.31153612 2.42512398 -13.60872746 2.23154068 C-11.77474152 1.72542093 -9.94254004 1.21284723 -8.11048889 0.69976807 C-5.27474489 0.06180948 -2.89017199 -0.14628642 0 0 Z " fill="#FF334E" transform="translate(307,103)"/>
<path d="M0 0 C5.71317641 15.53269837 5.71317641 15.53269837 2.4375 23.0625 C-0.01622275 28.22077048 -4.43341816 31.92728885 -9.64086914 34.10375977 C-12.65776518 35.0828633 -15.68407834 35.93775956 -18.75 36.75 C-20.28140625 37.18505859 -20.28140625 37.18505859 -21.84375 37.62890625 C-26.71503907 38.98272898 -31.54937017 40.14233509 -36.53515625 40.984375 C-42.41926714 41.99416845 -48.00520643 43.69285673 -53.6875 45.5 C-76.19607315 52.57370017 -76.19607315 52.57370017 -84.625 49.8125 C-89.82202563 47.02150475 -93.69825113 44.67268114 -95.6796875 39.01171875 C-96.09917167 37.57629636 -96.49740755 36.13450669 -96.875 34.6875 C-97.08640625 33.94693359 -97.2978125 33.20636719 -97.515625 32.44335938 C-98.02921093 30.63413622 -98.5172735 28.81770021 -99 27 C-95.93317143 24.95544762 -93.86879016 24.33225617 -90.3203125 23.484375 C-89.17481934 23.2059375 -88.02932617 22.9275 -86.84912109 22.640625 C-85.62016113 22.34671875 -84.39120117 22.0528125 -83.125 21.75 C-74.4969151 19.64210803 -65.90158362 17.48899087 -57.375 15 C-48.4452056 12.3947843 -39.4784629 9.9507282 -30.49145508 7.55053711 C-25.47100921 6.20821416 -20.45472438 4.85643912 -15.453125 3.4453125 C-14.61934326 3.21013916 -13.78556152 2.97496582 -12.92651367 2.73266602 C-11.39705394 2.29908479 -9.86850112 1.86228601 -8.34106445 1.42163086 C-5.4551049 0.60348412 -3.01741 0 0 0 Z " fill="#FE8595" transform="translate(207,129)"/>
<path d="M0 0 C0.92287015 2.47102256 1.63269306 4.80941999 2.28076172 7.35522461 C2.59123947 8.51176292 2.59123947 8.51176292 2.9079895 9.69166565 C3.59395946 12.25885047 4.26173538 14.83041741 4.9296875 17.40234375 C5.40552741 19.19655609 5.88252461 20.99046188 6.36062622 22.78407288 C7.62258251 27.53033058 8.86937129 32.28044496 10.11291504 37.03155518 C11.36240752 41.79605834 12.62474752 46.55714905 13.88671875 51.31835938 C15.31442363 56.7057606 16.74113026 62.0933848 18.15621948 67.4841156 C20.48702275 76.35443564 22.86172312 85.20892478 25.35487175 94.0352087 C26.79410042 99.15435195 28.02704423 104.29963057 29.17578125 109.4921875 C30.4419589 114.88094357 31.90288666 120.21855527 33.375 125.55444336 C33.58511719 126.33182861 33.79523438 127.10921387 34.01171875 127.91015625 C34.20209717 128.60246338 34.39247559 129.29477051 34.58862305 130.00805664 C35 132 35 132 35 136 C28.4 136 21.8 136 15 136 C12.98594808 129.00381964 10.98526346 122.00436594 9 115 C8.68337402 113.88334961 8.36674805 112.76669922 8.04052734 111.61621094 C1.91257319 89.92991211 -3.95497558 68.17181378 -9.80459595 46.40911865 C-10.68429477 43.13661199 -11.56622834 39.86472025 -12.45004272 36.59332275 C-13.50540528 32.68601188 -14.5556746 28.77736599 -15.60214424 24.86766434 C-15.99496634 23.40316856 -16.38948896 21.93912777 -16.78577995 20.47556686 C-17.33339742 18.45173233 -17.87474273 16.42631985 -18.41455078 14.40039062 C-18.72192169 13.25654907 -19.0292926 12.11270752 -19.34597778 10.9342041 C-20 8 -20 8 -20 4 C-17.23208055 3.13521219 -14.46134374 2.28288326 -11.6875 1.4375 C-10.90181641 1.19064453 -10.11613281 0.94378906 -9.30664062 0.68945312 C-8.54931641 0.46064453 -7.79199219 0.23183594 -7.01171875 -0.00390625 C-5.96697388 -0.32597046 -5.96697388 -0.32597046 -4.90112305 -0.65454102 C-3 -1 -3 -1 0 0 Z " fill="#E09D00" transform="translate(176,169)"/>
<path d="M0 0 C1.04401978 0.12568359 1.04401978 0.12568359 2.10913086 0.25390625 C6.43025495 0.77880654 10.74361664 1.34414608 15.05303955 1.95788574 C17.0405369 2.23809201 19.03074318 2.49887635 21.02099609 2.75878906 C32.7297077 4.54271141 44.2299052 8.6301798 52 18 C51.67 18.66 51.34 19.32 51 20 C49.48200806 19.74307373 49.48200806 19.74307373 47.93334961 19.48095703 C44.10370864 18.83349097 40.27349387 18.18947311 36.44311523 17.54638672 C34.79940725 17.26995293 33.15584697 16.99263914 31.51245117 16.71435547 C21.02981478 14.94002594 10.5550737 13.291572 0 12 C-0.91193115 11.88769043 -1.8238623 11.77538086 -2.76342773 11.65966797 C-19.23700223 9.77814044 -35.75582713 9.81162382 -52.3125 9.8125 C-53.42184906 9.81159363 -54.53119812 9.81068726 -55.67416382 9.80975342 C-66.97917745 9.81079665 -78.26829175 9.92382554 -89.5625 10.4453125 C-90.80734917 10.50227043 -90.80734917 10.50227043 -92.0773468 10.56037903 C-98.60929961 10.89937271 -105.03572271 11.69683102 -111.51171875 12.58984375 C-116.0291442 13.121008 -120.46016253 13.19643528 -125 13 C-125.50310058 11.2092015 -126.00238628 9.41733089 -126.5 7.625 C-126.7784375 6.62726563 -127.056875 5.62953125 -127.34375 4.6015625 C-128 2 -128 2 -128 0 C-125.95940522 -0.31942441 -123.91742776 -0.63001362 -121.875 -0.9375 C-120.73804688 -1.11152344 -119.60109375 -1.28554688 -118.4296875 -1.46484375 C-79.70341593 -6.60832335 -38.67536522 -4.72256428 0 0 Z " fill="#FED983" transform="translate(331,273)"/>
<path d="M0 0 C-0.53109375 0.42410156 -1.0621875 0.84820312 -1.609375 1.28515625 C-6.44437846 5.29572528 -6.44437846 5.29572528 -9.6875 10.625 C-12.05846432 15.18609238 -16.2970898 15.85706405 -20.91796875 17.44921875 C-39.25980974 24.07431926 -56.74937312 35.65676467 -70.87890625 49 C-72.85708891 50.86524773 -74.90239514 52.58457204 -77 54.3125 C-95.21454858 70.29146013 -107.21546697 93.53686627 -112 117 C-112.17724609 117.78560303 -112.35449219 118.57120605 -112.53710938 119.38061523 C-113.01437358 122.08133658 -113.11368232 124.56032399 -113.09765625 127.30078125 C-113.09443359 128.27724609 -113.09121094 129.25371094 -113.08789062 130.25976562 C-113.07951172 131.26716797 -113.07113281 132.27457031 -113.0625 133.3125 C-113.05798828 134.33923828 -113.05347656 135.36597656 -113.04882812 136.42382812 C-113.03708184 138.94927882 -113.02065565 141.47460905 -113 144 C-115 143 -115 143 -115.6328125 141.12890625 C-120.7218203 114.59336556 -113.8722231 88.25705113 -99 66 C-77.64315593 36.16584719 -47.1699617 14.84728242 -12.875 2.25 C-11.93269531 1.90251709 -10.99039063 1.55503418 -10.01953125 1.19702148 C-3.39146582 -1.13048861 -3.39146582 -1.13048861 0 0 Z " fill="#FF8292" transform="translate(123,38)"/>
<path d="M0 0 C0.78028564 -0.00067474 1.56057129 -0.00134949 2.36450195 -0.00204468 C14.53826575 0.01466037 26.26937933 0.57338438 38.1875 3.25 C39.37569336 3.50740967 39.37569336 3.50740967 40.58789062 3.77001953 C52.05054143 6.31702236 62.69128474 9.99145876 73.1875 15.25 C73.85910156 15.58515625 74.53070313 15.9203125 75.22265625 16.265625 C98.06690026 27.88281171 115.48330006 45.78111177 124.1875 70.25 C124.54424309 71.57726156 124.88768705 72.90873154 125.1875 74.25 C124.5275 74.25 123.8675 74.25 123.1875 74.25 C122.7028125 73.28320312 122.218125 72.31640625 121.71875 71.3203125 C117.59773817 63.25281114 113.30345862 56.00912826 107.1875 49.25 C106.52363281 48.50492188 105.85976563 47.75984375 105.17578125 46.9921875 C84.97908204 25.56352697 54.80408357 15.00348683 26.1875 11.25 C25.21683594 11.11980469 24.24617188 10.98960938 23.24609375 10.85546875 C8.40353938 9.27198144 -6.93067684 9.63303287 -21.67163086 11.88989258 C-27.30887867 12.61307915 -30.62366736 11.77297931 -35.67211914 9.21582031 C-38.86755185 7.77392094 -41.90137184 7.63489818 -45.375 7.5 C-47.20224609 7.41492187 -47.20224609 7.41492187 -49.06640625 7.328125 C-49.97261719 7.30234375 -50.87882813 7.2765625 -51.8125 7.25 C-48.86461014 5.62294827 -46.23452812 4.80617677 -42.92578125 4.21484375 C-41.98669922 4.04533203 -41.04761719 3.87582031 -40.08007812 3.70117188 C-38.61731445 3.4469043 -38.61731445 3.4469043 -37.125 3.1875 C-36.16916016 3.01412109 -35.21332031 2.84074219 -34.22851562 2.66210938 C-22.76397427 0.6224057 -11.62893502 0.00903248 0 0 Z " fill="#FF8292" transform="translate(181.8125,27.75)"/>
<path d="M0 0 C0.34611328 1.31713989 0.34611328 1.31713989 0.69921875 2.66088867 C1.79769711 6.83689744 2.8980862 11.01239656 4 15.1875 C4.20318848 15.95740265 4.40637695 16.7273053 4.61572266 17.52053833 C7.34332249 27.84570704 10.13040789 38.1507912 13 48.4375 C16.22510514 60.00827195 19.23845343 71.62462423 22.20147705 83.26464844 C24.68926901 93.02950468 27.2780629 102.74991646 30.10058594 112.42456055 C31.89643386 118.58055716 33.52665599 124.75767406 35 131 C37.97 131.33 40.94 131.66 44 132 C44 132.33 44 132.66 44 133 C39.05 133 34.1 133 29 133 C26.98046802 126.00552337 24.98524033 119.00428434 23 112 C22.68337402 110.88334961 22.36674805 109.76669922 22.04052734 108.61621094 C15.91257319 86.92991211 10.04502442 65.17181378 4.19540405 43.40911865 C3.31570523 40.13661199 2.43377166 36.86472025 1.54995728 33.59332275 C0.49459472 29.68601188 -0.5556746 25.77736599 -1.60214424 21.86766434 C-1.99496634 20.40316856 -2.38948896 18.93912777 -2.78577995 17.47556686 C-3.33339742 15.45173233 -3.87474273 13.42631985 -4.41455078 11.40039062 C-4.72192169 10.25654907 -5.0292926 9.11270752 -5.34597778 7.9342041 C-6 5 -6 5 -6 1 C-4 0 -4 0 0 0 Z " fill="#F9AE00" transform="translate(162,172)"/>
<path d="M0 0 C5.72089515 2.34195504 10.60042989 6.53792989 14.9375 10.875 C15.75541016 10.07835937 15.75541016 10.07835937 16.58984375 9.265625 C24.06200507 2.26606191 30.48872838 -1.17514044 40.67578125 -2.33984375 C43.527936 -2.06891368 44.81927772 -0.99116837 46.9375 0.875 C46.6075 3.185 46.2775 5.495 45.9375 7.875 C44.98875 8.1225 44.04 8.37 43.0625 8.625 C41.68444716 9.03145599 40.30975521 9.44938074 38.9375 9.875 C38.14214844 10.11992187 37.34679687 10.36484375 36.52734375 10.6171875 C30.52156933 12.71503142 26.79744836 15.45591769 22.53125 20.16796875 C20.03387389 22.84285443 18.96350891 22.87283259 15.1875 23.1875 C9.49561107 23.10515803 6.3169236 20.28890919 2.4375 16.3125 C-1.53283844 12.44142002 -5.39282305 10.944684 -10.75 9.9375 C-13.63959591 9.33712788 -14.90363187 9.0020945 -17.25 7.125 C-18.44098008 3.82690132 -17.5096883 1.97611779 -16.0625 -1.125 C-11.47976701 -3.4163665 -4.71092602 -1.53555335 0 0 Z " fill="#ADE2FF" transform="translate(356.0625,174.125)"/>
<path d="M0 0 C7.68099076 0.05510036 13.63953102 3.76373876 19.5625 8.375 C20.408125 7.611875 21.25375 6.84875 22.125 6.0625 C27.87444231 1.34500887 33.12017105 0.04065546 40.42578125 0.07421875 C42.5625 0.375 42.5625 0.375 44.5625 2.375 C45 5.3125 45 5.3125 44.5625 8.375 C41.75604598 10.81933092 38.74992631 11.61377562 35.25 12.625 C31.46784283 13.78536331 29.2776944 15.32157453 26.4375 18.0625 C23.82319106 20.47095784 22.70424369 21.33562675 19.1875 22.3125 C14.44339688 21.08557678 11.85587258 18.52272933 8.19921875 15.34765625 C4.82086746 12.82014899 1.66815913 11.86076518 -2.40625 10.9453125 C-4.4375 10.375 -4.4375 10.375 -6.4375 8.375 C-5.72321429 0.23214286 -5.72321429 0.23214286 0 0 Z " fill="#ADE2FF" transform="translate(396.4375,128.625)"/>
<path d="M0 0 C-0.33 0.66 -0.66 1.32 -1 2 C-3.98083548 2.66712493 -6.93007322 3.23269156 -9.9375 3.75 C-18.05112314 5.23301694 -25.69186397 7.32763561 -33.43725586 10.15722656 C-35.27495189 10.81936083 -37.13595147 11.41615792 -39 12 C-39.66 11.67 -40.32 11.34 -41 11 C-37.70028684 6.32824116 -34.63297414 2.44163793 -30 -1 C-29.67 -1.66 -29.34 -2.32 -29 -3 C-19.97225684 -6.02093334 -7.83889712 -5.33712145 0 0 Z " fill="#FFBFC7" transform="translate(152,39)"/>
<path d="M0 0 C2.5625 0.3125 2.5625 0.3125 4.375 1.5 C5.98775784 3.96157776 5.9959014 5.42315736 5.5625 8.3125 C4.4375 10.1875 4.4375 10.1875 2.5625 11.3125 C-0.5 11.1875 -0.5 11.1875 -3.4375 10.3125 C-5.4375 7.3125 -5.4375 7.3125 -5.1875 4.75 C-4.19253762 1.51637226 -3.41216263 0.43745675 0 0 Z " fill="#E29F04" transform="translate(128.4375,335.6875)"/>
<path d="M0 0 C2.5625 0.3125 2.5625 0.3125 4.4375 1.4375 C5.5625 3.3125 5.5625 3.3125 5.4375 6.375 C4.5625 9.3125 4.5625 9.3125 1.5625 11.3125 C-1 11.125 -1 11.125 -3.4375 10.3125 C-5.4375 7.3125 -5.4375 7.3125 -5.1875 4.75 C-4.19253762 1.51637226 -3.41216263 0.43745675 0 0 Z " fill="#E29F04" transform="translate(313.4375,296.6875)"/>
<path d="M0 0 C3 0.25 3 0.25 5 2.25 C4.625 5.875 4.625 5.875 4 9.25 C-2.41194487 10.58078101 -2.41194487 10.58078101 -5 9.125 C-6 7.25 -6 7.25 -5.8125 4.6875 C-4.61374094 1.09122283 -3.8124642 0.31770535 0 0 Z " fill="#E19F03" transform="translate(202,374.75)"/>
<path d="M0 0 C2.875 0.75 2.875 0.75 3.875 1.75 C4.125 5.1875 4.125 5.1875 3.875 8.75 C0.875 10.75 0.875 10.75 -1.6875 10.5 C-4.125 9.75 -4.125 9.75 -6.125 7.75 C-6.4883156 4.91613833 -6.4818671 3.34477849 -5 0.875 C-3.125 -0.25 -3.125 -0.25 0 0 Z " fill="#E19F03" transform="translate(265.125,336.25)"/>
<path d="M0 0 C3 0.25 3 0.25 5 2.25 C5.25 5.25 5.25 5.25 5 8.25 C3 10.25 3 10.25 0 10.5 C-3 10.25 -3 10.25 -5 8.25 C-5.25 5.25 -5.25 5.25 -5 2.25 C-3 0.25 -3 0.25 0 0 Z " fill="#E09E02" transform="translate(145,412.75)"/>
<path d="M0 0 C3 0.25 3 0.25 5 2.25 C5.25 5.25 5.25 5.25 5 8.25 C3 10.25 3 10.25 0 10.5 C-3 10.25 -3 10.25 -5 8.25 C-5.25 5.25 -5.25 5.25 -5 2.25 C-3 0.25 -3 0.25 0 0 Z " fill="#E09E02" transform="translate(68,374.75)"/>
<path d="M0 0 C3 0.25 3 0.25 5 2.25 C4.42307692 8.82692308 4.42307692 8.82692308 3 10.25 C0.0625 10.4375 0.0625 10.4375 -3 10.25 C-5 8.25 -5 8.25 -5.25 5.25 C-4.90584825 1.120179 -4.129821 0.34415175 0 0 Z " fill="#E09E02" transform="translate(278,412.75)"/>
<path d="M0 0 C2.34914492 2.34914492 2.73140357 3.95679446 3.625 7.125 C3.88539063 8.03507812 4.14578125 8.94515625 4.4140625 9.8828125 C4.70410156 10.93082031 4.70410156 10.93082031 5 12 C4.34 12 3.68 12 3 12 C2.29773859 10.75823305 1.61370891 9.50614401 0.9375 8.25 C0.36322266 7.20585938 0.36322266 7.20585938 -0.22265625 6.140625 C-1.1312406 3.63859372 -0.88336837 2.4667645 0 0 Z " fill="#FF798A" transform="translate(302,90)"/>
</svg>
