<?xml version="1.0" encoding="UTF-8"?>
<svg version="1.1" xmlns="http://www.w3.org/2000/svg" width="512" height="512">
<path d="M0 0 C114.18 0 228.36 0 346 0 C351.74205678 20.6714044 351.74205678 20.6714044 353.93847656 29.55859375 C354.31755157 31.0792746 354.31755157 31.0792746 354.70428467 32.63067627 C355.24165314 34.78764663 355.77793716 36.94488742 356.31317902 39.10238647 C357.16006594 42.51585887 358.01005538 45.92854632 358.86077881 49.34106445 C360.65986898 56.56004314 362.45519469 63.77995499 364.25 71 C366.34535009 79.42865554 368.44225437 87.8569184 370.54308319 96.28421021 C371.38092571 99.64855267 372.21593744 103.01358961 373.05084229 106.37866211 C373.5601243 108.42304864 374.06953675 110.46740269 374.57910156 112.51171875 C374.81077026 113.4487262 375.04243896 114.38573364 375.28112793 115.35113525 C375.4940448 116.20294373 375.70696167 117.0547522 375.92633057 117.93237305 C376.20280615 119.04493721 376.20280615 119.04493721 376.4848671 120.17997742 C376.96050896 122.07662036 376.96050896 122.07662036 378 124 C385.76662713 119.59891129 390.5525003 114.70206023 394.08984375 106.4609375 C395.42061609 101.40057573 395.73344749 96.33081876 396.125 91.125 C396.41375 87.45375 396.7025 83.7825 397 80 C407.56 80 418.12 80 429 80 C429.4752468 103.99996358 428.66108829 121.43328556 412.546875 140.359375 C403.80090413 149.42728345 393.46319858 155.92280024 381 158 C381 232.58 381 307.16 381 384 C386.28 384 391.56 384 397 384 C397 415.68 397 447.36 397 480 C354.76 480 312.52 480 269 480 C269 448.32 269 416.64 269 384 C274.28 384 279.56 384 285 384 C285 310.08 285 236.16 285 160 C269.16 160 253.32 160 237 160 C237 191.68 237 223.36 237 256 C194.76 256 152.52 256 109 256 C109 224.32 109 192.64 109 160 C93.16 160 77.32 160 61 160 C61 233.92 61 307.84 61 384 C66.28 384 71.56 384 77 384 C77 415.68 77 447.36 77 480 C34.76 480 -7.48 480 -51 480 C-51 448.32 -51 416.64 -51 384 C-45.72 384 -40.44 384 -35 384 C-35 309.42 -35 234.84 -35 158 C-36.98 157.67 -38.96 157.34 -41 157 C-58.30749691 150.03554615 -71.29699142 138.2745638 -78.9296875 121.05859375 C-82.30339774 111.41766265 -83.40090442 103.04395129 -83.1875 92.8125 C-83.125625 88.584375 -83.06375 84.35625 -83 80 C-72.44 80 -61.88 80 -51 80 C-50.25 90.875 -50.25 90.875 -50.04394531 94.23779297 C-49.2996579 103.73671898 -46.93715005 112.22051245 -40 119 C-37.40986337 120.81840132 -34.74550948 122.43051978 -32 124 C-28.30090916 111.0286209 -24.93452606 97.98874337 -21.68682098 84.89761353 C-20.83993406 81.48414113 -19.98994462 78.07145368 -19.13922119 74.65893555 C-17.34013102 67.43995686 -15.54480531 60.22004501 -13.75 53 C-11.65464991 44.57134446 -9.55774563 36.1430816 -7.45691681 27.71578979 C-6.61907429 24.35144733 -5.78406256 20.98641039 -4.94915771 17.62133789 C-4.4398757 15.57695136 -3.93046325 13.53259731 -3.42089844 11.48828125 C-3.18922974 10.5512738 -2.95756104 9.61426636 -2.71887207 8.64886475 C-2.5059552 7.79705627 -2.29303833 6.9452478 -2.07366943 6.06762695 C-1.88935238 5.32591751 -1.70503532 4.58420807 -1.5151329 3.82002258 C-1 2 -1 2 0 0 Z " fill="#000000" transform="translate(83,16)"/>
<path d="M0 0 C97.68 0 195.36 0 296 0 C319 90.72222222 319 90.72222222 319 96 C206.14 96 93.28 96 -23 96 C-22.31538601 89.83847407 -21.49091056 84.25004398 -19.97460938 78.31494141 C-19.77124466 77.49914612 -19.56787994 76.68335083 -19.35835266 75.84283447 C-18.69245131 73.17762914 -18.01822993 70.51460854 -17.34375 67.8515625 C-16.8762682 65.98843251 -16.40927562 64.1251797 -15.94274902 62.2618103 C-14.71872971 57.37909021 -13.48745685 52.4982268 -12.25482178 47.61767578 C-11.24776609 43.62495688 -10.24600773 39.63091791 -9.24449921 35.63680458 C-8.0502537 30.87459513 -6.85355323 26.11300399 -5.65625 21.3515625 C-5.42789963 20.44307178 -5.19954926 19.53458107 -4.96427917 18.59856033 C-4.3193085 16.03493423 -3.67265914 13.47173818 -3.02539062 10.90869141 C-2.83419144 10.1481546 -2.64299225 9.3876178 -2.44599915 8.60403442 C-1.71086875 5.69930846 -0.94793671 2.84381013 0 0 Z " fill="#45E03E" transform="translate(108,48)"/>
<path d="M0 0 C10.56 0 21.12 0 32 0 C32 73.92 32 147.84 32 224 C21.44 224 10.88 224 0 224 C0 150.08 0 76.16 0 0 Z " fill="#FF3B40" transform="translate(80,176)"/>
<path d="M0 0 C10.56 0 21.12 0 32 0 C32 73.92 32 147.84 32 224 C21.44 224 10.88 224 0 224 C0 150.08 0 76.16 0 0 Z " fill="#F32537" transform="translate(400,176)"/>
<path d="M0 0 C97.68 0 195.36 0 296 0 C299 11 299 11 299 16 C206.93 16 114.86 16 20 16 C19.34 19.63 18.68 23.26 18 27 C17.43654469 29.49797184 16.84815809 31.99052812 16.22827148 34.47509766 C15.98152679 35.46996185 15.98152679 35.46996185 15.72979736 36.48492432 C15.19705656 38.62885882 14.6592938 40.77149254 14.12109375 42.9140625 C13.74499794 44.42047071 13.36911155 45.92693122 12.99342346 47.43344116 C12.21152695 50.56541742 11.42711877 53.69675053 10.64086914 56.82763672 C9.63170827 60.84704711 8.62898511 64.86803195 7.62808132 68.88950539 C6.85599094 71.98867265 6.08056071 75.08699654 5.30409431 78.18507004 C4.93265143 79.66883804 4.56226004 81.15286968 4.19293022 82.63716507 C3.67946634 84.69859719 3.16152566 86.75885185 2.64233398 88.81884766 C2.34858383 89.99146149 2.05483368 91.16407532 1.75218201 92.3722229 C1 95 1 95 0 96 C-1.70772358 96.08713831 -3.41898649 96.10700007 -5.12890625 96.09765625 C-6.68061523 96.09282227 -6.68061523 96.09282227 -8.26367188 96.08789062 C-9.35228516 96.07951172 -10.44089844 96.07113281 -11.5625 96.0625 C-13.2012207 96.05573242 -13.2012207 96.05573242 -14.87304688 96.04882812 C-17.58208495 96.03699826 -20.29101599 96.02051543 -23 96 C-22.42745811 89.93258138 -21.48165661 84.21382219 -19.97460938 78.31494141 C-19.77124466 77.49914612 -19.56787994 76.68335083 -19.35835266 75.84283447 C-18.69245131 73.17762914 -18.01822993 70.51460854 -17.34375 67.8515625 C-16.8762682 65.98843251 -16.40927562 64.1251797 -15.94274902 62.2618103 C-14.71872971 57.37909021 -13.48745685 52.4982268 -12.25482178 47.61767578 C-11.24776609 43.62495688 -10.24600773 39.63091791 -9.24449921 35.63680458 C-8.0502537 30.87459513 -6.85355323 26.11300399 -5.65625 21.3515625 C-5.42789963 20.44307178 -5.19954926 19.53458107 -4.96427917 18.59856033 C-4.3193085 16.03493423 -3.67265914 13.47173818 -3.02539062 10.90869141 C-2.83419144 10.1481546 -2.64299225 9.3876178 -2.44599915 8.60403442 C-1.71086875 5.69930846 -0.94793671 2.84381013 0 0 Z " fill="#6AE564" transform="translate(108,48)"/>
<path d="M0 0 C21.12 0 42.24 0 64 0 C64 21.12 64 42.24 64 64 C42.88 64 21.76 64 0 64 C0 42.88 0 21.76 0 0 Z " fill="#FFCD0A" transform="translate(224,176)"/>
<path d="M0 0 C5.28 0 10.56 0 16 0 C16 63.36 16 126.72 16 192 C10.72 192 5.44 192 0 192 C0 128.64 0 65.28 0 0 Z " fill="#FF3B40" transform="translate(400,208)"/>
<path d="M0 0 C5.28 0 10.56 0 16 0 C16 63.36 16 126.72 16 192 C10.72 192 5.44 192 0 192 C0 128.64 0 65.28 0 0 Z " fill="#FF5B62" transform="translate(80,208)"/>
<path d="M0 0 C21.12 0 42.24 0 64 0 C64 10.56 64 21.12 64 32 C42.88 32 21.76 32 0 32 C0 21.44 0 10.88 0 0 Z " fill="#5A5A5A" transform="translate(384,432)"/>
<path d="M0 0 C21.12 0 42.24 0 64 0 C64 10.56 64 21.12 64 32 C42.88 32 21.76 32 0 32 C0 21.44 0 10.88 0 0 Z " fill="#444444" transform="translate(64,432)"/>
<path d="M0 0 C21.12 0 42.24 0 64 0 C64 10.56 64 21.12 64 32 C42.88 32 21.76 32 0 32 C0 21.44 0 10.88 0 0 Z " fill="#FFB40A" transform="translate(224,176)"/>
<path d="M0 0 C10.56 0 21.12 0 32 0 C32 10.56 32 21.12 32 32 C21.44 32 10.88 32 0 32 C0 21.44 0 10.88 0 0 Z " fill="#F32537" transform="translate(80,176)"/>
<path d="M0 0 C5.28 0 10.56 0 16 0 C16 10.56 16 21.12 16 32 C10.72 32 5.44 32 0 32 C0 21.44 0 10.88 0 0 Z " fill="#444444" transform="translate(432,432)"/>
<path d="M0 0 C5.28 0 10.56 0 16 0 C16 10.56 16 21.12 16 32 C10.72 32 5.44 32 0 32 C0 21.44 0 10.88 0 0 Z " fill="#5A5A5A" transform="translate(64,432)"/>
<path d="M0 0 C5.28 0 10.56 0 16 0 C16 10.56 16 21.12 16 32 C10.72 32 5.44 32 0 32 C0 21.44 0 10.88 0 0 Z " fill="#FF3B40" transform="translate(80,176)"/>
</svg>
